<?xml version="1.0" encoding="utf-8"?>
<!-- Generator: Adobe Illustrator 17.0.0, SVG Export Plug-In . SVG Version: 6.00 Build 0)  -->
<!DOCTYPE svg PUBLIC "-//W3C//DTD SVG 1.1//EN" "http://www.w3.org/Graphics/SVG/1.1/DTD/svg11.dtd">
<svg version="1.1" id="Calque_1" xmlns="http://www.w3.org/2000/svg" xmlns:xlink="http://www.w3.org/1999/xlink" x="0px" y="0px"
	 width="20.001px" height="16.001px" viewBox="-1.385 -0.45 20.001 16.001" enable-background="new -1.385 -0.45 20.001 16.001"
	 xml:space="preserve">
<path fill="#F83131" d="M11.464-0.158c-0.432-0.411-1.169-0.385-1.57,0.054C9.498,0.328,9.498,1.005,9.896,1.439l4.709,4.924H-0.258
	c-0.611,0-1.114,0.506-1.123,1.144c-0.053,0.591,0.376,1.115,0.958,1.17c0.064,0.006,0.142,0.005,0.179,0.001h14.849l-4.704,4.92
	c-0.446,0.425-0.47,1.14-0.053,1.594c0.208,0.229,0.505,0.358,0.812,0.358c0.283,0,0.553-0.108,0.759-0.304
	c0.021-0.021,0.04-0.039,0.052-0.055l7.052-7.696l0.093-0.101L11.464-0.158z"/>
</svg>
