<?xml version="1.0" encoding="utf-8"?>
<!-- Generator: Adobe Illustrator 17.0.0, SVG Export Plug-In . SVG Version: 6.00 Build 0)  -->
<!DOCTYPE svg PUBLIC "-//W3C//DTD SVG 1.1//EN" "http://www.w3.org/Graphics/SVG/1.1/DTD/svg11.dtd">
<svg version="1.1" id="Calque_1" xmlns="http://www.w3.org/2000/svg" xmlns:xlink="http://www.w3.org/1999/xlink" x="0px" y="0px"
	 width="20.001px" height="16.001px" viewBox="1.999 0 20.001 16.001" enable-background="new 1.999 0 20.001 16.001"
	 xml:space="preserve">
<path fill="#FFFFFF" d="M14.849,0.292c-0.432-0.411-1.169-0.385-1.57,0.054c-0.396,0.432-0.396,1.109,0.002,1.543l4.709,4.924H3.127
	c-0.611,0-1.114,0.506-1.123,1.144C1.951,8.548,2.38,9.072,2.962,9.127c0.064,0.006,0.142,0.005,0.179,0.001H17.99l-4.704,4.92
	c-0.446,0.425-0.47,1.14-0.053,1.594C13.441,15.871,13.738,16,14.045,16c0.283,0,0.553-0.108,0.759-0.304
	c0.021-0.021,0.04-0.039,0.052-0.055l7.052-7.696l0.093-0.101L14.849,0.292z"/>
</svg>
