<?xml version="1.0" encoding="utf-8"?>
<!-- Generator: Adobe Illustrator 16.0.0, SVG Export Plug-In . SVG Version: 6.00 Build 0)  -->
<!DOCTYPE svg PUBLIC "-//W3C//DTD SVG 1.1//EN" "http://www.w3.org/Graphics/SVG/1.1/DTD/svg11.dtd">
<svg version="1.1" id="Calque_1" xmlns="http://www.w3.org/2000/svg" xmlns:xlink="http://www.w3.org/1999/xlink" x="0px" y="0px"
	 width="20px" height="16px" viewBox="0 0 20 16" enable-background="new 0 0 20 16" xml:space="preserve">
<path fill="#F83131" d="M12.85,0.292c-0.434-0.411-1.17-0.385-1.57,0.054c-0.396,0.432-0.396,1.109,0.002,1.543l4.709,4.924H1.127
	c-0.611,0-1.114,0.506-1.123,1.144c-0.053,0.59,0.376,1.116,0.958,1.17c0.064,0.006,0.142,0.004,0.179,0h14.849l-4.705,4.92
	c-0.445,0.426-0.469,1.141-0.053,1.595C11.442,15.872,11.739,16,12.045,16c0.283,0,0.553-0.108,0.76-0.305
	c0.02-0.021,0.039-0.039,0.051-0.055l7.053-7.696L20,7.844L12.85,0.292z"/>
</svg>
