<?xml version="1.0" encoding="utf-8"?>
<!-- Generator: Adobe Illustrator 16.0.0, SVG Export Plug-In . SVG Version: 6.00 Build 0)  -->
<!DOCTYPE svg PUBLIC "-//W3C//DTD SVG 1.1//EN" "http://www.w3.org/Graphics/SVG/1.1/DTD/svg11.dtd">
<svg version="1.1" id="Calque_1" xmlns="http://www.w3.org/2000/svg" xmlns:xlink="http://www.w3.org/1999/xlink" x="0px" y="0px"
	 width="16px" height="16px" viewBox="292.616 114.709 16 16" enable-background="new 292.616 114.709 16 16" xml:space="preserve">
<path fill="#FFFFFF" d="M302.298,122.709l4.947,4.947c0.495,0.495,0.495,1.187,0,1.682c-0.494,0.495-1.188,0.495-1.683,0
	l-4.946-4.947l-4.947,4.947c-0.495,0.495-1.188,0.495-1.682,0c-0.495-0.495-0.495-1.188,0-1.682l4.947-4.947l-4.947-4.947
	c-0.495-0.495-0.495-1.187,0-1.682c0.494-0.495,1.187-0.495,1.682,0l4.947,4.947l4.946-4.947c0.495-0.495,1.188-0.495,1.683,0
	c0.495,0.495,0.495,1.188,0,1.682L302.298,122.709z"/>
</svg>
