<?xml version="1.0" encoding="utf-8"?>
<!-- Generator: Adobe Illustrator 17.0.0, SVG Export Plug-In . SVG Version: 6.00 Build 0)  -->
<!DOCTYPE svg PUBLIC "-//W3C//DTD SVG 1.1//EN" "http://www.w3.org/Graphics/SVG/1.1/DTD/svg11.dtd">
<svg version="1.1" id="Calque_1" xmlns="http://www.w3.org/2000/svg" xmlns:xlink="http://www.w3.org/1999/xlink" x="0px" y="0px"
	 width="30px" height="30px" viewBox="0 0 30 30" enable-background="new 0 0 30 30" xml:space="preserve">
<g id="linkedin-logo" transform="translate(1069 2783.61)">
	<path id="LinkedIn" fill="#FFFFFF" d="M-1042.25-2766.065v8.688h-5.038v-8.105c0-2.035-0.729-3.426-2.552-3.426
		c-1.164,0.007-2.198,0.744-2.584,1.842c-0.13,0.396-0.187,0.813-0.167,1.229v8.46h-5.038c0,0,0.067-13.729,0-15.151h5.038v2.147
		c-0.012,0.017-0.024,0.033-0.033,0.05h0.033v-0.05c0.928-1.612,2.676-2.577,4.535-2.503
		C-1044.735-2772.885-1042.25-2770.72-1042.25-2766.065z M-1062.898-2779.833c-1.445-0.125-2.717,0.944-2.842,2.389
		c-0.125,1.445,0.944,2.717,2.389,2.842c0.129,0.011,0.258,0.013,0.388,0.005h0.032c1.445,0.127,2.721-0.942,2.847-2.387
		s-0.942-2.719-2.389-2.846C-1062.614-2779.843-1062.756-2779.844-1062.898-2779.833z M-1065.45-2757.378h5.037v-15.151h-5.037
		V-2757.378z"/>
</g>
</svg>
