<?xml version="1.0" encoding="utf-8"?>
<!-- Generator: Adobe Illustrator 16.0.0, SVG Export Plug-In . SVG Version: 6.00 Build 0)  -->
<!DOCTYPE svg PUBLIC "-//W3C//DTD SVG 1.1//EN" "http://www.w3.org/Graphics/SVG/1.1/DTD/svg11.dtd">
<svg version="1.1" id="Calque_1" xmlns="http://www.w3.org/2000/svg" xmlns:xlink="http://www.w3.org/1999/xlink" x="0px" y="0px"
	 width="24px" height="24px" viewBox="0 0 24 24" enable-background="new 0 0 24 24" xml:space="preserve">
<path fill="#FFFFFF" d="M22.298,21.038l-5.237-5.445c1.348-1.602,2.085-3.614,2.085-5.71C19.146,4.985,15.161,1,10.263,1
	C5.366,1,1.38,4.985,1.38,9.882c0,4.9,3.985,8.883,8.882,8.883c1.838,0,3.591-0.555,5.088-1.607l5.275,5.487
	C20.847,22.874,21.143,23,21.463,23c0.3,0,0.584-0.115,0.801-0.323C22.726,22.234,22.74,21.5,22.298,21.038z M10.263,3.316
	c3.619,0,6.564,2.945,6.564,6.566c0,3.62-2.945,6.566-6.564,6.566c-3.621,0-6.566-2.946-6.566-6.566
	C3.697,6.262,6.643,3.316,10.263,3.316z"/>
</svg>
