<?xml version="1.0" encoding="utf-8"?>
<!-- Generator: Adobe Illustrator 16.0.0, SVG Export Plug-In . SVG Version: 6.00 Build 0)  -->
<!DOCTYPE svg PUBLIC "-//W3C//DTD SVG 1.1//EN" "http://www.w3.org/Graphics/SVG/1.1/DTD/svg11.dtd">
<svg version="1.1" id="Calque_1" xmlns="http://www.w3.org/2000/svg" xmlns:xlink="http://www.w3.org/1999/xlink" x="0px" y="0px"
	 width="30px" height="30px" viewBox="282.64 405.945 30 30" enable-background="new 282.64 405.945 30 30" xml:space="preserve">
<g id="Groupe_2874" transform="translate(1096 3265.294)">
	<g id="Groupe_2873" transform="translate(0 -471.126)">
		<g id="Groupe_2872" transform="translate(0 0)">
			<path id="Tracé_4412" fill="#FFFFFF" d="M-784.094-2379.077c-1.035,0.458-2.133,0.759-3.257,0.893
				c1.184-0.709,2.068-1.823,2.492-3.135c-1.113,0.66-2.332,1.125-3.602,1.377c-1.07-1.145-2.568-1.793-4.135-1.792
				c-3.133,0-5.67,2.539-5.671,5.67c0,0.435,0.049,0.869,0.146,1.292c-4.56-0.228-8.808-2.382-11.688-5.924
				c-0.506,0.865-0.771,1.849-0.768,2.851c-0.001,1.896,0.945,3.667,2.522,4.719c-0.9-0.03-1.781-0.273-2.568-0.711v0.071
				c0.001,2.699,1.903,5.023,4.548,5.561c-0.486,0.131-0.99,0.197-1.495,0.198c-0.357,0-0.716-0.034-1.066-0.104
				c0.742,2.311,2.871,3.893,5.296,3.938c-2.009,1.575-4.49,2.43-7.043,2.424c-0.454,0-0.907-0.027-1.358-0.078
				c2.592,1.668,5.61,2.554,8.693,2.551c8.849,0.062,16.072-7.062,16.134-15.909c0-0.073,0-0.146,0-0.218l-0.019-0.734
				C-785.816-2376.939-784.854-2377.934-784.094-2379.077"/>
		</g>
	</g>
</g>
</svg>
