<svg xmlns="http://www.w3.org/2000/svg" viewBox="0 0 64.327 61">
  <defs>
    <style>
      .cls-1 {
        fill: #d9d9d9;
      }

      .cls-2 {
        fill: #e8edf2;
      }

      .cls-3 {
        fill: #c13333;
      }

      .cls-4 {
        fill: #f51f1f;
      }

      .cls-5 {
        fill: #f83131;
      }

      .cls-6 {
        fill: #ea3131;
      }

      .cls-7 {
        fill: #ad2e2e;
      }
    </style>
  </defs>
  <g id="elearning_1_" data-name="elearning(1)" transform="translate(0 -12)">
    <path id="Tracé_4929" data-name="Tracé 4929" class="cls-1" d="M174.182,357.982v4.436H152v-4.436h4.436V348h13.309v9.982Z" transform="translate(-130.927 -289.418)"/>
    <path id="Tracé_4930" data-name="Tracé 4930" class="cls-2" d="M0,111.491V76H64.327v35.491a2.225,2.225,0,0,1-2.218,2.218H2.218A2.225,2.225,0,0,1,0,111.491ZM7.764,100.4a2.251,2.251,0,1,0-.7-.122A2.105,2.105,0,0,0,7.764,100.4Zm0-9.982,11.091,4.536v7.664a18.1,18.1,0,0,0,25.573,1.045q.544-.5,1.045-1.045V94.954l11.091-4.536-24.4-9.982Z" transform="translate(0 -55.127)"/>
    <path id="Tracé_4931" data-name="Tracé 4931" class="cls-3" d="M162.618,212.72v7.664a18.1,18.1,0,0,1-25.573,1.045q-.544-.5-1.045-1.045V212.72l13.309,5.446Z" transform="translate(-117.145 -172.893)"/>
    <path id="Tracé_4932" data-name="Tracé 4932" class="cls-4" d="M93.709,122.518,80.4,127.964l-13.309-5.446L56,117.982,80.4,108l24.4,9.982Z" transform="translate(-48.236 -82.691)"/>
    <path id="Tracé_4933" data-name="Tracé 4933" class="cls-5" d="M64.327,14.218v6.655H0V14.218A2.225,2.225,0,0,1,2.218,12H62.109A2.225,2.225,0,0,1,64.327,14.218Z"/>
    <path id="Tracé_4934" data-name="Tracé 4934" d="M51.659,236v2.218a2.1,2.1,0,0,1-.7-.122Z" transform="translate(-43.895 -192.945)"/>
    <path id="Tracé_4935" data-name="Tracé 4935" class="cls-6" d="M19.925,187.764a2.218,2.218,0,0,0-1.109-1.909V180H16.6v5.855a2.218,2.218,0,0,0-1.109,1.909,2.173,2.173,0,0,0,.568,1.442l-.357,1.069a10.619,10.619,0,0,1-4.156,5.435l1.236,1.843a12.884,12.884,0,0,0,3.819-3.994,6.511,6.511,0,0,1-1.885,4.512l1.568,1.568a8.746,8.746,0,0,0,2.535-6.141v-3.825A2.218,2.218,0,0,0,19.925,187.764Z" transform="translate(-9.944 -144.709)"/>
    <g id="Groupe_3073" data-name="Groupe 3073" transform="translate(54.345 15.327)">
      <path id="Tracé_4936" data-name="Tracé 4936" class="cls-2" d="M392,36h2.218v2.218H392Z" transform="translate(-392 -36)"/>
      <path id="Tracé_4937" data-name="Tracé 4937" class="cls-2" d="M424,36h2.218v2.218H424Z" transform="translate(-419.564 -36)"/>
    </g>
    <path id="Tracé_4938" data-name="Tracé 4938" class="cls-7" d="M142.418,226.707a19.31,19.31,0,0,1-14.122-6.189,1.109,1.109,0,0,1-.3-.754V212.1l2.218-.1v7.32a16.988,16.988,0,0,0,24.022.378q.192-.186.378-.378V212.1l2.218-.1v7.764a1.108,1.108,0,0,1-.3.754,19.31,19.31,0,0,1-14.122,6.189Z" transform="translate(-110.255 -172.273)"/>
    <path id="Tracé_4939" data-name="Tracé 4939" class="cls-6" d="M73.5,122.178a1.1,1.1,0,0,1-.42-.082l-24.4-9.982a1.109,1.109,0,0,1,0-2.054l24.4-9.982a1.109,1.109,0,0,1,.841,0l24.4,9.982a1.109,1.109,0,0,1,0,2.054l-24.4,9.982A1.1,1.1,0,0,1,73.5,122.178Zm-21.47-11.091,21.47,8.784L86.386,114.6l8.581-3.509L73.5,102.3Z" transform="translate(-41.333 -75.796)"/>
  </g>
</svg>
