<svg xmlns="http://www.w3.org/2000/svg" viewBox="0 0 93.482 66.089">
  <defs>
    <style>
      .cls-1 {
        fill: #f83131;
      }

      .cls-2 {
        fill: #ff4040;
      }

      .cls-3 {
        fill: #ff6464;
      }

      .cls-4 {
        fill: #d2555a;
      }

      .cls-5 {
        fill: #fff;
      }
    </style>
  </defs>
  <g id="question" transform="translate(0 -75.014)">
    <path id="Tracé_4011" data-name="Tracé 4011" class="cls-1" d="M216.7,189.773h45.129a4.835,4.835,0,0,1,4.835,4.835V223.62a4.835,4.835,0,0,1-4.835,4.835H236.038v5.316a1.136,1.136,0,0,1-1.939.8l-6.119-6.119H216.7a4.835,4.835,0,0,1-4.835-4.835V194.608A4.835,4.835,0,0,1,216.7,189.773Z" transform="translate(-173.18 -93.806)"/>
    <path id="Tracé_4012" data-name="Tracé 4012" class="cls-2" d="M211.862,194.609v29.012a4.838,4.838,0,0,0,.109,1.01,30.565,30.565,0,0,0,18.539-34.857H216.7A4.835,4.835,0,0,0,211.862,194.609Z" transform="translate(-173.18 -93.807)"/>
    <path id="Tracé_4013" data-name="Tracé 4013" class="cls-3" d="M54.8,102.414a27.4,27.4,0,1,0-32.881,26.849l8.253,8.253a1.209,1.209,0,0,0,2.064-.855v-7.3A27.388,27.388,0,0,0,54.8,102.414Z"/>
    <circle id="Ellipse_82" data-name="Ellipse 82" class="cls-4" cx="20.953" cy="20.953" r="20.953" transform="translate(6.447 81.469)"/>
    <g id="Groupe_2404" data-name="Groupe 2404" transform="translate(17.729 87.915)">
      <path id="Tracé_4014" data-name="Tracé 4014" class="cls-5" d="M142.845,290.131h0a1.613,1.613,0,0,1-1.613-1.613h0a1.613,1.613,0,0,1,1.613-1.613h0a1.613,1.613,0,0,1,1.613,1.613h0A1.613,1.613,0,0,1,142.845,290.131Z" transform="translate(-133.173 -261.117)"/>
      <path id="Tracé_4015" data-name="Tracé 4015" class="cls-5" d="M318.636,262.081a1.607,1.607,0,0,1-1.14-.472l-8.059-8.059a1.612,1.612,0,0,1,2.279-2.279l6.919,6.919,14.978-14.978a1.612,1.612,0,0,1,2.279,2.279l-16.118,16.118A1.606,1.606,0,0,1,318.636,262.081Z" transform="translate(-270.283 -225.017)"/>
      <path id="Tracé_4016" data-name="Tracé 4016" class="cls-5" d="M106.772,168.238a1.612,1.612,0,0,1-1.612-1.612v-.481a4.811,4.811,0,0,1,3.467-4.624,6.488,6.488,0,0,0,4.592-6.176,6.572,6.572,0,0,0-6.447-6.448h0a6.454,6.454,0,0,0-6.447,6.447,1.612,1.612,0,1,1-3.224,0,9.682,9.682,0,0,1,9.67-9.671h0a9.793,9.793,0,0,1,9.67,9.671,9.732,9.732,0,0,1-6.889,9.263,1.608,1.608,0,0,0-1.17,1.537v.481A1.611,1.611,0,0,1,106.772,168.238Z" transform="translate(-97.101 -145.673)"/>
    </g>
  </g>
</svg>
