<?xml version="1.0" encoding="utf-8"?>
<!-- Generator: Adobe Illustrator 16.0.0, SVG Export Plug-In . SVG Version: 6.00 Build 0)  -->
<!DOCTYPE svg PUBLIC "-//W3C//DTD SVG 1.1//EN" "http://www.w3.org/Graphics/SVG/1.1/DTD/svg11.dtd">
<svg version="1.1" id="Calque_1" xmlns="http://www.w3.org/2000/svg" xmlns:xlink="http://www.w3.org/1999/xlink" x="0px" y="0px"
	 width="30px" height="30px" viewBox="282.64 405.945 30 30" enable-background="new 282.64 405.945 30 30" xml:space="preserve">
<path id="iconfinder_038_008_youtube_video_social_network_android_material_1646914" fill="#FFFFFF" d="M311.054,416.614
	c-0.162-1.804-1.596-3.232-3.4-3.387c-2.09-0.167-5.19-0.348-9.016-0.348c-4.606,0-8.083,0.188-10.331,0.364
	c-1.813,0.146-3.258,1.579-3.42,3.391c-0.138,1.448-0.257,3.359-0.257,5.639c0,2.223,0.119,4.101,0.255,5.531
	c0.165,1.811,1.608,3.24,3.421,3.386c2.248,0.177,5.726,0.365,10.332,0.365c3.825,0,6.924-0.181,9.016-0.354
	c1.805-0.155,3.238-1.583,3.4-3.387c0.134-1.441,0.258-3.336,0.258-5.597C311.312,419.956,311.193,418.062,311.054,416.614z
	 M295.004,426.138v-7.842l7.735,3.921L295.004,426.138z"/>
</svg>
