<?xml version="1.0" encoding="utf-8"?>
<!-- Generator: Adobe Illustrator 16.0.0, SVG Export Plug-In . SVG Version: 6.00 Build 0)  -->
<!DOCTYPE svg PUBLIC "-//W3C//DTD SVG 1.1//EN" "http://www.w3.org/Graphics/SVG/1.1/DTD/svg11.dtd">
<svg version="1.1" id="Calque_1" xmlns="http://www.w3.org/2000/svg" xmlns:xlink="http://www.w3.org/1999/xlink" x="0px" y="0px"
	 width="30px" height="30px" viewBox="0 0 30 30" enable-background="new 0 0 30 30" xml:space="preserve">
<g id="linkedin-logo" transform="translate(1069 2783.61)">
	<path id="LinkedIn" fill="#AAAAAA" d="M-1042.25-2766.065v8.688h-5.039v-8.105c0-2.035-0.729-3.426-2.551-3.426
		c-1.164,0.007-2.199,0.744-2.584,1.842c-0.131,0.396-0.188,0.813-0.168,1.229v8.461h-5.037c0,0,0.066-13.73,0-15.152h5.037v2.146
		c-0.012,0.018-0.023,0.033-0.033,0.051h0.033v-0.051c0.928-1.611,2.676-2.576,4.535-2.502
		C-1044.734-2772.886-1042.25-2770.721-1042.25-2766.065z M-1062.898-2779.833c-1.445-0.125-2.717,0.943-2.842,2.389
		s0.943,2.717,2.389,2.842c0.129,0.011,0.258,0.013,0.389,0.005h0.031c1.445,0.127,2.721-0.942,2.848-2.387
		c0.125-1.445-0.942-2.72-2.389-2.847C-1062.614-2779.844-1062.756-2779.845-1062.898-2779.833z M-1065.45-2757.379h5.037v-15.151
		h-5.037V-2757.379z"/>
</g>
</svg>
