<?xml version="1.0" encoding="utf-8"?>
<!-- Generator: Adobe Illustrator 16.0.0, SVG Export Plug-In . SVG Version: 6.00 Build 0)  -->
<!DOCTYPE svg PUBLIC "-//W3C//DTD SVG 1.1//EN" "http://www.w3.org/Graphics/SVG/1.1/DTD/svg11.dtd">
<svg version="1.1" id="Calque_1" xmlns="http://www.w3.org/2000/svg" xmlns:xlink="http://www.w3.org/1999/xlink" x="0px" y="0px"
	 width="30px" height="30px" viewBox="0 0 30 30" enable-background="new 0 0 30 30" xml:space="preserve">
<g id="Groupe_2874" transform="translate(1096 3265.294)">
	<g id="Groupe_2873" transform="translate(0 -471.126)">
		<g id="Groupe_2872" transform="translate(0 0)">
			<path id="Tracé_4412" fill="#AAAAAA" d="M-1067.176-2787.74c-1.035,0.458-2.133,0.759-3.258,0.894
				c1.184-0.709,2.068-1.823,2.492-3.135c-1.113,0.659-2.332,1.125-3.602,1.377c-1.07-1.146-2.568-1.793-4.135-1.793
				c-3.133,0-5.67,2.539-5.672,5.67c0,0.436,0.049,0.869,0.146,1.293c-4.561-0.229-8.809-2.383-11.688-5.925
				c-0.506,0.865-0.771,1.85-0.769,2.852c-0.001,1.896,0.945,3.667,2.522,4.719c-0.9-0.03-1.781-0.272-2.568-0.711v0.071
				c0.001,2.698,1.902,5.022,4.548,5.561c-0.485,0.132-0.989,0.197-1.495,0.198c-0.357,0-0.716-0.034-1.066-0.104
				c0.742,2.311,2.871,3.893,5.297,3.938c-2.01,1.575-4.49,2.43-7.043,2.424c-0.454,0-0.907-0.027-1.358-0.078
				c2.593,1.668,5.61,2.555,8.693,2.552c8.849,0.062,16.072-7.063,16.134-15.909c0-0.073,0-0.146,0-0.218l-0.02-0.734
				C-1068.898-2785.603-1067.936-2786.597-1067.176-2787.74"/>
		</g>
	</g>
</g>
</svg>
