<?xml version="1.0" encoding="utf-8"?>
<!-- Generator: Adobe Illustrator 16.0.0, SVG Export Plug-In . SVG Version: 6.00 Build 0)  -->
<!DOCTYPE svg PUBLIC "-//W3C//DTD SVG 1.1//EN" "http://www.w3.org/Graphics/SVG/1.1/DTD/svg11.dtd">
<svg version="1.1" id="Calque_1" xmlns="http://www.w3.org/2000/svg" xmlns:xlink="http://www.w3.org/1999/xlink" x="0px" y="0px"
	 width="30px" height="30px" viewBox="0 0 30 30" enable-background="new 0 0 30 30" xml:space="preserve">
<path id="iconfinder_038_008_youtube_video_social_network_android_material_1646914" fill="#AAAAAA" d="M28.084,9.397
	c-0.162-1.804-1.598-3.232-3.4-3.388c-2.09-0.166-5.189-0.348-9.016-0.348c-4.607,0-8.084,0.188-10.333,0.364
	c-1.813,0.146-3.258,1.579-3.42,3.391c-0.138,1.448-0.257,3.359-0.257,5.64c0,2.223,0.119,4.101,0.255,5.53
	c0.165,1.812,1.608,3.24,3.422,3.387c2.248,0.177,5.726,0.364,10.333,0.364c3.824,0,6.924-0.181,9.016-0.354
	c1.805-0.155,3.238-1.583,3.4-3.387c0.133-1.441,0.258-3.337,0.258-5.598S28.223,10.846,28.084,9.397z M12.033,18.921v-7.842
	L19.768,15L12.033,18.921z"/>
</svg>
