<svg version="1.1" id="Calque_1" xmlns="http://www.w3.org/2000/svg" xmlns:xlink="http://www.w3.org/1999/xlink" x="0px" y="0px" width="100px" height="100px" viewBox="-14 -20 100 100" enable-background="new -14 -20 100 100" xml:space="preserve" Googl="true">


<rect x="-14" y="-20" fill="none" width="100" height="100"/>

    <g>
	<g>
		<g>
			<path fill="#e6143b" d="M51.616,49.717c0,0.748,0.562,1.496,1.496,1.496c0.747,0,1.495-0.561,1.495-1.496     c0-0.746-0.562-1.494-1.495-1.494C52.364,48.223,51.616,48.971,51.616,49.717"/>
            <path fill="#e6143b" d="M0.372,50.467c0-0.188,0-0.563,0.188-0.937c0.375-0.747,1.123-0.747,1.311-0.747h5.422     c0.188,0,0.562,0,0.748,0.188c0.375,0.188,0.562,0.561,0.562,0.935c0,0.375-0.187,0.748-0.374,0.935     c-0.188,0.375-0.561,0.375-0.748,0.375H3.366v1.869h3.365c0.374,0,0.563,0,0.936,0.187c0.375,0.375,0.375,0.748,0.375,0.937     c0,0.188,0,0.373-0.188,0.56c-0.374,0.562-0.937,0.562-1.122,0.562H3.366v2.805c0,0.373,0,0.748-0.188,1.121     s-0.561,0.562-1.309,0.562c-0.563,0-0.937-0.188-1.123-0.562c-0.188-0.373-0.375-0.746-0.375-1.121V50.467L0.372,50.467z"/>
            <path fill="#e6143b" d="M11.594,55.699c0-0.56,0-2.055,1.31-2.055c0.561,0,0.748,0.373,0.936,0.747     c0.187,0.373,0.187,0.936,0.187,1.495c0,0.748,0,2.057-1.31,2.057C11.594,57.756,11.594,56.073,11.594,55.699 M17.018,55.699     c0-2.055-1.122-4.111-4.114-4.111c-2.058,0-4.115,1.121-4.115,4.111c0,1.122,0.188,2.057,0.937,2.991     c0.374,0.373,1.122,1.122,2.992,1.122C15.147,59.813,17.018,58.504,17.018,55.699"/>
            <path fill="#e6143b" d="M17.767,53.27c0-0.373,0-0.936,0.561-1.309c0.188-0.188,0.562-0.373,0.748-0.373c0.188,0,0.375,0,0.562,0     c0.748,0.373,0.748,0.935,0.748,1.309c0-0.188,0-0.188,0.187-0.374c0.375-0.562,0.937-1.122,1.684-1.122     c0.935,0,1.309,0.563,1.309,1.309c0,0.562-0.188,1.123-1.123,1.31c-0.188,0-0.748,0-0.936,0c-0.936,0.187-0.936,0.937-0.936,1.31     v2.241c0,0.374,0,0.562-0.187,0.937c-0.187,0.746-0.748,1.121-1.31,1.121c-0.373,0-0.748-0.187-0.936-0.373     c-0.374-0.375-0.374-0.936-0.374-1.31v-4.673L17.767,53.27L17.767,53.27z"/>
            <path fill="#e6143b" d="M24.124,53.27c0-0.373,0-1.121,0.748-1.495c0.187-0.187,0.373-0.187,0.561-0.187s0.375,0,0.561,0.187     c0.748,0.374,0.748,1.122,0.748,1.31c0,0,0-0.188,0.188-0.188c0.188-0.188,0.748-1.309,2.432-1.309     c0.561,0,1.122,0.187,1.684,0.561c0.373,0.374,0.373,0.561,0.561,0.934c0.186-0.187,0.186-0.373,0.561-0.746     c0.375-0.375,0.937-0.562,1.871-0.562c0.561,0,1.31,0.187,1.684,0.562c0.748,0.561,0.748,1.309,0.748,2.241v3.739     c0,0.373,0,0.561-0.188,0.936c-0.187,0.373-0.748,0.561-1.121,0.561s-0.562-0.188-0.748-0.374     c-0.562-0.374-0.562-0.935-0.562-1.31V55.14c0-0.374,0-0.563,0-0.748c-0.187-0.373-0.375-0.56-0.937-0.56     c-0.373,0-0.56,0-0.748,0.373c-0.187,0.372-0.375,0.747-0.375,1.121v2.991c0,0.373,0,0.935-0.373,1.308     C31.23,59.813,30.856,60,30.481,60c-0.374,0-0.561-0.188-0.748-0.188c-0.561-0.374-0.561-1.309-0.561-1.684v-3.177     c0-0.375,0-1.122-0.936-1.122c-0.188,0-0.375,0-0.561,0.188c-0.374,0.373-0.374,0.747-0.561,1.122v2.989     c0,0.375,0,0.748-0.375,0.936c-0.187,0.374-0.748,0.561-1.121,0.561c-0.375,0-0.75-0.187-0.937-0.373     c-0.374-0.373-0.374-0.935-0.374-1.309L24.124,53.27L24.124,53.27L24.124,53.27L24.124,53.27z"/>
            <path fill="#e6143b" d="M42.077,57.194c-0.373,0.188-0.746,0.562-1.494,0.562c-0.75,0-0.75-0.562-0.75-0.562     c0-0.56,0.562-0.56,0.938-0.747c0.561-0.188,0.747-0.188,1.495-0.375L42.077,57.194z M44.696,54.391     c0-2.803-2.619-2.803-3.74-2.803c-0.563,0-1.123,0-1.869,0.187c-1.311,0.374-1.684,1.31-1.684,1.683     c0,0.748,0.561,1.121,1.309,1.121c0.563,0,0.748-0.373,0.937-0.56c0,0,0.187-0.187,0.187-0.374     c0.188-0.374,0.748-0.374,1.123-0.374c0.561,0,0.936,0.374,0.936,0.562c0,0.373-0.373,0.561-0.561,0.561     c-0.373,0-1.685,0.373-2.058,0.373c-0.937,0.188-2.432,0.748-2.432,2.431c0,1.496,0.937,2.431,2.618,2.431     c1.496,0,2.058-0.561,2.617-1.121c0.188,0.373,0.375,0.936,1.31,0.936c1.123,0,1.31-0.936,1.31-1.309L44.696,54.391     L44.696,54.391L44.696,54.391z"/>
            <path fill="#e6143b" d="M46.753,51.026c0-0.373,0-0.747,0.373-1.31c0.188-0.187,0.373-0.373,0.937-0.373     c0.747,0,1.31,0.373,1.31,1.496v0.935h0.748c0.561,0,0.935,0.374,0.935,0.937c0,0.373-0.187,0.56-0.373,0.746     c-0.187,0.188-0.562,0.188-1.31,0.188v2.989c0,0.188,0,0.561,0.373,0.561h0.562c0.374,0,0.562,0.374,0.562,0.936     c0,1.31-1.31,1.31-1.685,1.31c-0.373,0-0.747,0-1.12-0.187c-1.497-0.375-1.684-1.496-1.684-2.432c0-0.935,0-2.431,0-3.363     c-0.563,0-0.75,0-0.938,0c-0.373-0.188-0.56-0.562-0.56-0.936c0,0,0-0.188,0-0.374c0.187-0.562,0.56-0.562,0.934-0.562h0.563     v-0.561L46.753,51.026L46.753,51.026z"/>
            <path fill="#e6143b" d="M51.616,53.27L51.616,53.27L51.616,53.27v4.859c0,0.188,0,0.562,0.188,0.936s0.747,0.748,1.309,0.748     c0.188,0,0.748,0,1.122-0.748c0.188-0.373,0.188-0.747,0.188-1.121V53.27c0-1.121-0.748-1.682-1.496-1.682     s-0.936,0.373-1.122,0.561C51.616,52.522,51.616,52.896,51.616,53.27L51.616,53.27z"/>
            <path fill="#e6143b" d="M58.161,55.699c0-0.56,0-2.055,1.31-2.055c0.562,0,0.748,0.373,0.937,0.747     c0.187,0.374,0.187,0.936,0.187,1.495c0,0.748,0,2.057-1.31,2.057C58.161,57.756,58.161,56.073,58.161,55.699 M63.583,55.699     c0-2.055-1.121-4.111-4.113-4.111c-2.057,0-4.115,1.121-4.115,4.111c0,1.122,0.188,2.057,0.936,2.991     c0.375,0.373,1.123,1.122,2.994,1.122C61.714,59.813,63.583,58.504,63.583,55.699"/>
            <path fill="#e6143b" d="M64.52,53.27c0-0.373,0-0.561,0.187-0.936c0.188-0.373,0.562-0.746,1.123-0.746     c0.373,0,0.748,0.187,0.936,0.373c0.374,0.373,0.374,0.562,0.374,0.936c0.187-0.188,0.373-0.374,0.56-0.561     c0.563-0.375,1.311-0.748,1.87-0.748c0.749,0,1.496,0.375,1.871,0.935c0.374,0.562,0.562,1.123,0.562,1.496v4.112     c0,0.373,0,0.561-0.188,0.935s-0.749,0.562-1.123,0.562s-0.747-0.188-1.123-0.562c-0.373-0.373-0.373-0.747-0.373-1.121v-2.989     c0-0.188,0-0.563-0.187-0.748c-0.187-0.373-0.373-0.373-0.748-0.373c-0.187,0-0.374,0-0.562,0.187     c-0.373,0.373-0.373,0.937-0.373,1.495v2.617c0,0.188,0,0.561-0.188,0.935s-0.748,0.562-1.123,0.562     c-0.561,0-0.936-0.373-1.122-0.748c-0.187-0.373-0.187-0.561-0.187-0.935v-4.674h-0.188L64.52,53.27L64.52,53.27z"/>
		</g>
        <g>
			<g>
				<path fill="#e6143b" d="M65.268,10.84c2.992,0,5.424-2.431,5.424-5.42c0-2.99-2.433-5.42-5.424-5.42      c-2.993,0-5.424,2.43-5.424,5.42C59.844,8.409,62.274,10.84,65.268,10.84"/>
                <path fill="#e6143b" d="M36.28,5.42c0-2.99,2.43-5.42,5.422-5.42s5.424,2.43,5.424,5.42c0,2.989-2.432,5.42-5.424,5.42      S36.28,8.409,36.28,5.42"/>
                <path fill="#e6143b" d="M68.073,13.645L68.073,13.645c-0.937-0.561-1.869-0.748-2.806-0.748c-0.374,0-0.748,0-1.123,0h-8.228      c-4.114,0-6.172,2.617-6.172,5.42c0,2.617,1.494,3.739,2.244,4.3c1.309,0.935,2.617,0.935,3.739,1.121h3.927v13.832      c0,0.937,0,2.242,0.748,3.364c0.748,1.496,2.432,2.617,4.676,2.617c0.935,0,3.18-0.188,4.487-2.617      c0.748-1.309,0.937-2.616,0.937-3.926V19.252c0-0.373,0-0.561,0-0.935C70.691,17.195,70.503,14.952,68.073,13.645"/>
			</g>
            <path fill="#e6143b" d="M46.753,18.877c0-4.111-2.619-6.168-5.424-6.168c-2.619,0-3.74,1.496-4.301,2.243     c-0.561,0.936-0.748,1.683-0.936,2.431c-0.374-0.936-2.805-4.674-9.164-4.674c-2.244,0-4.303,0.562-5.985,1.871     c-1.309,1.12-1.683,2.241-2.243,3.176c-0.373-0.935-0.936-1.682-2.242-2.804c-1.311-1.12-3.553-2.43-7.295-2.43     c-2.432,0-4.676,0.562-6.358,2.243C0.187,17.195-0.001,20-0.001,23.178V37.01c0,1.121,0.188,2.43,0.936,3.738     c0.936,1.682,2.618,2.43,4.301,2.43c1.311,0,2.244-0.373,3.18-1.121c2.058-1.682,2.244-3.553,2.244-4.86v-11.59     c0-1.683,0-1.869,0.375-2.431c0.373-1.494,1.683-2.242,3.178-2.242c1.123,0,1.871,0.375,2.619,1.122     c0.937,1.12,1.123,2.43,1.123,4.112v11.027c0,1.684,0,3.364,1.683,4.86c0.937,0.747,2.057,1.495,3.553,1.495     c1.123,0,2.244-0.375,3.181-0.936c2.431-1.683,2.431-4.673,2.431-6.355V25.606c0-1.496,0.374-4.298,3.554-4.298     c0.748,0,1.497,0.188,1.87,0.56c1.683,1.122,1.683,2.991,1.87,4.113v11.588c0,1.31,0.188,2.431,1.123,3.737     c1.121,1.496,2.617,2.242,4.301,2.242c1.311,0,2.618-0.561,3.739-1.496c1.684-1.682,1.684-3.551,1.87-4.858L46.753,18.877z      M45.257,24.297c-0.374,0.188-0.561,0.188-0.936,0.375l0,0l0,0h-4.676c-0.373,0-0.561,0-0.936-0.188     c-0.748-0.187-0.748-0.935-0.748-1.121c0-0.748,0.373-0.935,1.123-1.496c0.748-0.561,1.496-1.12,2.057-1.683     c0.936-0.936,1.496-1.682,1.496-2.43c0-0.561-0.374-1.121-1.123-1.121c-0.747,0-0.934,0.561-1.122,0.935     c0,0.188-0.188,0.374-0.188,0.562c-0.187,0.373-0.56,0.561-0.935,0.561c-0.373,0-1.123-0.188-1.123-1.309     c0-0.935,0.938-2.99,3.556-2.99c2.431,0,3.551,1.682,3.551,3.177c0,1.683-1.309,2.991-2.805,4.113     c-0.373,0.187-0.562,0.561-0.936,0.747h2.617c0.188,0,0.375,0,0.748,0.188c0.375,0.188,0.562,0.561,0.562,0.936     C45.63,24.11,45.443,24.297,45.257,24.297z"/>
		</g>
	</g>
</g>

</svg>